<?xml version="1.0" standalone="no"?>
<!DOCTYPE svg PUBLIC "-//W3C//DTD SVG 20010904//EN"
 "http://www.w3.org/TR/2001/REC-SVG-20010904/DTD/svg10.dtd">
<svg version="1.0" xmlns="http://www.w3.org/2000/svg"
 width="320.000000pt" height="320.000000pt" viewBox="0 0 320.000000 320.000000"
 preserveAspectRatio="xMidYMid meet">
<metadata>
Created by potrace 1.14, written by Peter Selinger 2001-2017
</metadata>
<g transform="translate(0.000000,320.000000) scale(0.100000,-0.100000)"
fill="#000000" stroke="none">
<path d="M505 3165 c-3 -16 -10 -77 -15 -135 -20 -192 -66 -445 -164 -890 -38
-175 -207 -952 -212 -980 -3 -14 -19 -86 -35 -160 -16 -74 -31 -145 -34 -158
-2 -12 -6 -30 -9 -40 -3 -9 -7 -28 -10 -42 -5 -24 -10 -48 -21 -100 -4 -19 19
-68 101 -210 58 -102 140 -245 182 -317 l76 -133 371 0 370 1 59 102 c32 56
114 199 182 318 l125 215 -20 86 c-11 47 -23 101 -26 120 -3 18 -10 49 -15 68
-5 19 -11 46 -14 60 -3 14 -7 34 -9 45 -3 11 -21 97 -41 190 -20 94 -41 186
-46 205 -5 19 -11 46 -14 60 -2 14 -54 259 -116 545 -160 745 -180 855 -196
1073 -4 51 -12 96 -18 100 -6 3 -109 7 -228 7 l-218 0 -5 -30z"/>
<path d="M2026 3156 c-13 -23 -96 -165 -183 -317 l-159 -276 18 -84 c10 -46
20 -93 22 -104 2 -11 16 -74 30 -140 15 -66 29 -131 32 -145 3 -14 7 -33 10
-42 5 -17 -6 -18 -138 -18 l-143 0 0 -225 c0 -143 4 -225 10 -226 5 -1 91 -2
189 -3 l179 -1 10 -28 c5 -16 7 -31 4 -33 -3 -3 -42 -5 -86 -5 l-81 0 0 -229
0 -230 134 0 134 0 10 -29 c12 -34 8 -41 -27 -41 l-26 0 0 -225 0 -225 25 -1
c14 -1 48 -1 77 0 47 2 53 0 58 -21 12 -53 35 -210 45 -308 6 -58 13 -116 15
-130 2 -14 4 -35 4 -46 1 -21 3 -21 225 -20 123 0 226 3 229 6 3 3 8 37 11 75
13 140 38 313 61 435 48 244 218 1035 226 1045 5 6 58 10 133 10 l126 0 0 227
0 228 -80 0 c-44 0 -80 2 -80 4 0 4 76 359 86 401 3 11 10 45 16 76 l11 55
-67 112 c-36 62 -66 114 -66 116 0 2 -27 49 -59 104 -33 55 -83 142 -112 194
-29 51 -54 95 -56 98 -3 3 -171 5 -374 6 l-370 1 -23 -41z"/>
</g>
</svg>
